<svg width="262" height="143" viewBox="0 0 262 143" fill="none" xmlns="http://www.w3.org/2000/svg">
<path d="M134.244 0.0949116C131.837 0.548901 126.934 2.31946 119.035 5.49739C109.546 9.3563 103.826 11.2631 98.2421 12.4888C96.0176 12.9882 94.1108 13.4876 93.9746 13.5784C93.5206 14.0778 97.3342 14.8496 101.148 15.122C105.869 15.4398 110.046 14.668 118.808 11.8532C131.974 7.63114 138.193 7.40415 145.048 10.8999C147.909 12.3526 151.359 14.9404 150.769 15.122C150.496 15.2128 148.68 14.6226 146.683 13.8508C141.144 11.6262 136.65 10.8999 132.791 11.5355C130.067 12.0348 126.072 13.533 126.072 14.1232C126.072 14.214 128.069 14.3048 130.521 14.2594C136.74 14.2594 139.283 15.3036 147.863 21.387C154.991 26.4263 158.85 28.0607 165.75 28.8779C174.058 29.8766 184.909 27.9245 197.348 23.1122C200.208 22.0226 202.569 21.0692 202.614 21.0238C202.66 20.9784 199.845 20.933 196.304 20.933C190.947 20.933 189.222 20.7514 186.135 19.8435C181.595 18.5723 174.285 14.895 165.796 9.62869C154.037 2.31946 148.771 0.276506 140.599 0.0495129C137.739 -0.0412865 134.879 0.00411415 134.244 0.0949116Z" fill="white"/>
<path d="M127.757 64.1463C130.163 63.6923 135.066 61.9218 142.965 58.7438C152.454 54.8849 158.174 52.9782 163.758 51.7524C165.983 51.253 167.889 50.7536 168.026 50.6628C168.48 50.1634 164.666 49.3916 160.853 49.1192C156.131 48.8014 151.954 49.5732 143.192 52.388C130.027 56.6101 123.807 56.8371 116.952 53.3413C114.092 51.8886 110.641 49.3008 111.231 49.1192C111.504 49.0284 113.32 49.6186 115.317 50.3904C120.856 52.615 125.351 53.3413 129.209 52.7058C131.933 52.2064 135.929 50.7082 135.929 50.118C135.929 50.0272 133.931 49.9364 131.479 49.9818C125.26 49.9818 122.717 48.9376 114.137 42.8542C107.009 37.8149 103.15 36.1805 96.2498 35.3634C87.9418 34.3646 77.0915 36.3167 64.6522 41.129C61.792 42.2186 59.4313 43.172 59.3859 43.2174C59.3405 43.2628 62.1552 43.3082 65.6963 43.3082C71.0534 43.3082 72.7786 43.4898 75.8657 44.3978C80.4056 45.6689 87.7148 49.3462 96.2044 54.6125C107.963 61.9218 113.229 63.9647 121.401 64.1917C124.261 64.2825 127.121 64.2371 127.757 64.1463Z" fill="white"/>
<path d="M122.667 19.7072C121.032 20.7513 118.626 23.3845 117.582 25.382C117.128 26.2446 116.765 28.2876 116.629 30.4667C116.356 35.2336 117.446 37.9575 120.851 41.0901C125.027 44.8582 130.248 45.7208 135.469 43.4054C143.596 39.8189 145.82 29.1047 139.873 22.1587C139.01 21.1145 138.102 20.2519 137.875 20.2519C137.648 20.2519 137.512 21.1145 137.512 22.1587C137.512 24.7918 136.877 26.1992 135.015 27.8336C132.7 29.8311 130.294 30.1489 127.524 28.787C124.8 27.4704 123.348 25.2912 123.348 22.6581C123.348 21.5685 123.575 20.2519 123.802 19.7526C124.392 18.7084 124.346 18.7084 122.667 19.7072Z" fill="white"/>
<path d="M27.4457 133.493C25.0697 133.493 22.8857 132.941 20.8937 131.837C18.9257 130.733 17.3537 129.197 16.1777 127.229C15.0257 125.237 14.4497 123.005 14.4497 120.533C14.4497 118.061 15.0257 115.841 16.1777 113.873C17.3537 111.905 18.9257 110.369 20.8937 109.265C22.8857 108.161 25.0697 107.609 27.4457 107.609C29.8217 107.609 31.9937 108.161 33.9617 109.265C35.9537 110.369 37.5137 111.905 38.6417 113.873C39.7937 115.841 40.3697 118.061 40.3697 120.533C40.3697 123.005 39.7937 125.237 38.6417 127.229C37.4897 129.197 35.9297 130.733 33.9617 131.837C31.9937 132.941 29.8217 133.493 27.4457 133.493ZM27.4457 127.877C29.4617 127.877 31.0697 127.205 32.2697 125.861C33.4937 124.517 34.1057 122.741 34.1057 120.533C34.1057 118.301 33.4937 116.525 32.2697 115.205C31.0697 113.861 29.4617 113.189 27.4457 113.189C25.4057 113.189 23.7737 113.849 22.5497 115.169C21.3497 116.489 20.7497 118.277 20.7497 120.533C20.7497 122.765 21.3497 124.553 22.5497 125.897C23.7737 127.217 25.4057 127.877 27.4457 127.877ZM63.6305 113.153V133.241H57.4745V130.505C56.8505 131.393 55.9985 132.113 54.9185 132.665C53.8625 133.193 52.6865 133.457 51.3905 133.457C49.8545 133.457 48.4985 133.121 47.3225 132.449C46.1465 131.753 45.2345 130.757 44.5865 129.461C43.9385 128.165 43.6145 126.641 43.6145 124.889V113.153H49.7345V124.061C49.7345 125.405 50.0825 126.449 50.7785 127.193C51.4745 127.937 52.4105 128.309 53.5865 128.309C54.7865 128.309 55.7345 127.937 56.4305 127.193C57.1265 126.449 57.4745 125.405 57.4745 124.061V113.153H63.6305ZM74.2083 116.501C74.9283 115.397 75.8283 114.533 76.9083 113.909C77.9883 113.261 79.1883 112.937 80.5083 112.937V119.453H78.8163C77.2803 119.453 76.1283 119.789 75.3603 120.461C74.5923 121.109 74.2083 122.261 74.2083 123.917V133.241H68.0523V113.153H74.2083V116.501ZM89.6068 112.901V118.013H97.8508V122.765H89.6068V128.309H98.9308V133.241H83.4508V107.969H98.9308V112.901H89.6068ZM123.447 113.153L110.847 142.781H104.223L108.831 132.557L100.659 113.153H107.535L112.179 125.717L116.787 113.153H123.447ZM144.609 122.873C144.609 123.449 144.573 124.049 144.501 124.673H130.569C130.665 125.921 131.061 126.881 131.757 127.553C132.477 128.201 133.353 128.525 134.385 128.525C135.921 128.525 136.989 127.877 137.589 126.581H144.141C143.805 127.901 143.193 129.089 142.305 130.145C141.441 131.201 140.349 132.029 139.029 132.629C137.709 133.229 136.233 133.529 134.601 133.529C132.633 133.529 130.881 133.109 129.345 132.269C127.809 131.429 126.609 130.229 125.745 128.669C124.881 127.109 124.449 125.285 124.449 123.197C124.449 121.109 124.869 119.285 125.709 117.725C126.573 116.165 127.773 114.965 129.309 114.125C130.845 113.285 132.609 112.865 134.601 112.865C136.545 112.865 138.273 113.273 139.785 114.089C141.297 114.905 142.473 116.069 143.313 117.581C144.177 119.093 144.609 120.857 144.609 122.873ZM138.309 121.253C138.309 120.197 137.949 119.357 137.229 118.733C136.509 118.109 135.609 117.797 134.529 117.797C133.497 117.797 132.621 118.097 131.901 118.697C131.205 119.297 130.773 120.149 130.605 121.253H138.309ZM171.218 128.777H161.786L160.274 133.241H153.83L162.974 107.969H170.102L179.246 133.241H172.73L171.218 128.777ZM169.634 124.025L166.502 114.773L163.406 124.025H169.634ZM188.185 115.997C188.785 115.061 189.613 114.305 190.669 113.729C191.725 113.153 192.961 112.865 194.377 112.865C196.033 112.865 197.533 113.285 198.877 114.125C200.221 114.965 201.277 116.165 202.045 117.725C202.837 119.285 203.233 121.097 203.233 123.161C203.233 125.225 202.837 127.049 202.045 128.633C201.277 130.193 200.221 131.405 198.877 132.269C197.533 133.109 196.033 133.529 194.377 133.529C192.985 133.529 191.749 133.241 190.669 132.665C189.613 132.089 188.785 131.345 188.185 130.433V142.817H182.029V113.153H188.185V115.997ZM196.969 123.161C196.969 121.625 196.537 120.425 195.673 119.561C194.833 118.673 193.789 118.229 192.541 118.229C191.317 118.229 190.273 118.673 189.409 119.561C188.569 120.449 188.149 121.661 188.149 123.197C188.149 124.733 188.569 125.945 189.409 126.833C190.273 127.721 191.317 128.165 192.541 128.165C193.765 128.165 194.809 127.721 195.673 126.833C196.537 125.921 196.969 124.697 196.969 123.161ZM212.618 115.997C213.218 115.061 214.046 114.305 215.102 113.729C216.158 113.153 217.394 112.865 218.81 112.865C220.466 112.865 221.966 113.285 223.31 114.125C224.654 114.965 225.71 116.165 226.478 117.725C227.27 119.285 227.666 121.097 227.666 123.161C227.666 125.225 227.27 127.049 226.478 128.633C225.71 130.193 224.654 131.405 223.31 132.269C221.966 133.109 220.466 133.529 218.81 133.529C217.418 133.529 216.182 133.241 215.102 132.665C214.046 132.089 213.218 131.345 212.618 130.433V142.817H206.462V113.153H212.618V115.997ZM221.402 123.161C221.402 121.625 220.97 120.425 220.106 119.561C219.266 118.673 218.222 118.229 216.974 118.229C215.75 118.229 214.706 118.673 213.842 119.561C213.002 120.449 212.582 121.661 212.582 123.197C212.582 124.733 213.002 125.945 213.842 126.833C214.706 127.721 215.75 128.165 216.974 128.165C218.198 128.165 219.242 127.721 220.106 126.833C220.97 125.921 221.402 124.697 221.402 123.161ZM239.068 133.529C237.316 133.529 235.756 133.229 234.388 132.629C233.02 132.029 231.94 131.213 231.148 130.181C230.356 129.125 229.912 127.949 229.816 126.653H235.9C235.972 127.349 236.296 127.913 236.872 128.345C237.448 128.777 238.156 128.993 238.996 128.993C239.764 128.993 240.352 128.849 240.76 128.561C241.192 128.249 241.408 127.853 241.408 127.373C241.408 126.797 241.108 126.377 240.508 126.113C239.908 125.825 238.936 125.513 237.592 125.177C236.152 124.841 234.952 124.493 233.992 124.133C233.032 123.749 232.204 123.161 231.508 122.369C230.812 121.553 230.464 120.461 230.464 119.093C230.464 117.941 230.776 116.897 231.4 115.961C232.048 115.001 232.984 114.245 234.208 113.693C235.456 113.141 236.932 112.865 238.636 112.865C241.156 112.865 243.136 113.489 244.576 114.737C246.04 115.985 246.88 117.641 247.096 119.705H241.408C241.312 119.009 241 118.457 240.472 118.049C239.968 117.641 239.296 117.437 238.456 117.437C237.736 117.437 237.184 117.581 236.8 117.869C236.416 118.133 236.224 118.505 236.224 118.985C236.224 119.561 236.524 119.993 237.124 120.281C237.748 120.569 238.708 120.857 240.004 121.145C241.492 121.529 242.704 121.913 243.64 122.297C244.576 122.657 245.392 123.257 246.088 124.097C246.808 124.913 247.18 126.017 247.204 127.409C247.204 128.585 246.868 129.641 246.196 130.577C245.548 131.489 244.6 132.209 243.352 132.737C242.128 133.265 240.7 133.529 239.068 133.529Z" fill="white"/>
</svg>
